<svg xmlns="http://www.w3.org/2000/svg" viewBox="0 0 624 570" width="624" height="570">
<defs>
<linearGradient id="titanMarkGradient" x1="0%" y1="0%" x2="100%" y2="100%">
<stop offset="0%" stop-color="#00d7ff"/>
<stop offset="45%" stop-color="#0078ff"/>
<stop offset="100%" stop-color="#7c3aed"/>
</linearGradient>
<linearGradient id="titanArrowGradient" x1="0%" y1="100%" x2="100%" y2="0%">
<stop offset="0%" stop-color="#0078ff"/>
<stop offset="100%" stop-color="#00d7ff"/>
</linearGradient>
</defs>
<g fill="url(#titanMarkGradient)">
<g id="p-swoop" transform="translate(11.5000,11.2500) scale(0.250000)">
<g transform="translate(-3.964003,2179.273186) scale(1.000000,-1.000000)">
<path d="M280 2179 c-1 -1 -2 -2 -3 -3 -1 -1 -2 -3 -2 -3 0 0 -2 -3 -3 -5 -2
-2 -5 -6 -6 -7 -2 -2 -5 -6 -6 -8 -4 -6 -23 -29 -26 -32 -2 -2 -5 -6 -7 -9 -2
-3 -4 -6 -5 -6 0 -1 -2 -4 -4 -6 -3 -5 -5 -7 -7 -10 -3 -3 -26 -31 -27 -33 0
-1 -2 -4 -4 -6 -4 -5 -30 -37 -37 -47 -3 -4 -8 -10 -11 -13 -2 -3 -7 -9 -10
-13 -4 -4 -8 -9 -9 -10 -1 -2 -4 -6 -7 -9 -3 -4 -7 -9 -9 -12 -4 -5 -7 -9 -27
-34 -7 -9 -18 -22 -23 -29 -5 -7 -13 -16 -17 -21 -4 -5 -11 -13 -15 -18 -4 -5
-8 -10 -9 -11 -2 -1 -3 -6 -1 -7 0 -1 379 -1 840 -1 744 0 842 0 860 -2 23 -1
35 -4 68 -12 16 -4 43 -13 55 -19 10 -4 35 -18 38 -20 1 -1 2 -2 3 -2 3 -1 27
-18 38 -25 31 -25 62 -59 83 -90 16 -24 38 -64 38 -68 0 -1 1 -3 2 -5 5 -11 9
-21 11 -29 1 -3 3 -9 4 -12 7 -19 14 -53 18 -82 2 -22 3 -75 1 -95 -4 -41 -7
-62 -10 -71 0 -3 -2 -11 -4 -18 -6 -23 -7 -29 -12 -46 -7 -23 -21 -61 -31 -83
-16 -36 -31 -65 -45 -87 -5 -7 -12 -19 -16 -26 -17 -27 -37 -56 -54 -77 -8
-10 -15 -18 -19 -24 -3 -4 -11 -14 -18 -21 -13 -16 -19 -23 -25 -31 -3 -3 -8
-9 -12 -12 -13 -10 -51 -38 -65 -47 -4 -2 -13 -8 -19 -12 -15 -11 -18 -13 -29
-20 -5 -4 -15 -10 -22 -14 -7 -5 -15 -10 -17 -12 -3 -1 -11 -6 -18 -11 -7 -4
-16 -10 -19 -12 -15 -9 -30 -19 -44 -26 -1 -2 -13 -8 -26 -16 -13 -7 -24 -14
-25 -14 -1 -1 -3 -1 -4 -2 -3 -1 -4 -2 -8 -4 -3 -2 -6 -3 -7 -4 -1 -1 -3 -1
-4 -2 -1 -1 -3 -2 -4 -3 -2 0 -7 -3 -11 -5 -4 -3 -11 -6 -15 -8 -3 -2 -9 -5
-11 -6 -6 -4 -84 -43 -95 -48 -5 -2 -14 -6 -20 -9 -7 -3 -13 -6 -14 -7 -1 0
-2 -1 -3 -1 0 0 -3 -1 -6 -2 -12 -5 -14 -6 -17 -8 -2 -1 -5 -2 -6 -2 -1 0 -3
-1 -4 -2 -2 -1 -4 -2 -5 -2 -1 0 -4 -1 -6 -2 -3 -2 -5 -3 -17 -8 -3 -1 -6 -2
-6 -2 -1 0 -3 -1 -5 -2 -3 -1 -7 -3 -10 -4 -3 -1 -7 -3 -10 -4 -2 -1 -5 -2 -5
-2 -1 0 -3 -1 -6 -2 -8 -4 -12 -6 -16 -7 -2 -1 -5 -2 -7 -3 -3 0 -5 -2 -6 -2
-1 -1 -4 -2 -7 -2 -6 -2 -10 -4 -15 -6 -3 -1 -6 -2 -8 -3 -6 -1 -11 -3 -15 -5
-2 -1 -5 -2 -6 -2 -1 0 -4 -1 -6 -2 -2 -1 -5 -2 -5 -2 -1 0 -3 -1 -5 -2 -2 -1
-5 -2 -6 -2 -1 0 -4 -1 -6 -2 -2 -1 -5 -2 -6 -2 -1 0 -3 -1 -5 -2 -2 -1 -5 -2
-6 -2 -1 0 -4 -1 -7 -2 -2 -1 -5 -2 -6 -2 -1 0 -3 -1 -5 -2 -2 -1 -5 -2 -6 -2
-1 0 -4 -1 -7 -2 -2 -1 -5 -2 -7 -2 -3 -1 -5 -2 -6 -3 -2 0 -4 -1 -5 -1 -2 0
-5 -1 -6 -2 -2 0 -6 -2 -8 -2 -3 -1 -6 -2 -8 -3 -1 0 -3 -1 -5 -1 -1 0 -3 -1
-5 -2 -2 -1 -5 -2 -7 -2 -1 0 -4 -1 -7 -2 -2 -1 -5 -2 -7 -2 -1 0 -4 -1 -7 -2
-2 -1 -6 -2 -9 -2 -2 -1 -5 -2 -7 -3 -2 0 -4 -1 -6 -1 -1 0 -4 -1 -7 -2 -2 -1
-6 -2 -7 -2 -2 0 -6 -1 -9 -2 -3 -1 -6 -2 -7 -2 -9 0 -12 -3 -15 -14 0 -3 -2
-9 -3 -12 -3 -14 -4 -19 -6 -25 0 -4 -2 -10 -2 -12 -2 -7 -5 -18 -6 -22 0 -3
-2 -9 -3 -15 -2 -7 -4 -14 -4 -17 -1 -3 -2 -8 -3 -10 -1 -3 -3 -10 -4 -15 -2
-11 -4 -19 -7 -29 -1 -4 -2 -9 -3 -11 0 -2 -1 -7 -2 -10 -3 -12 -5 -17 -6 -22
0 -2 -1 -6 -1 -7 -1 -1 -2 -4 -2 -6 -1 -3 -2 -7 -3 -11 -1 -4 -2 -9 -3 -11 0
-3 -2 -10 -3 -15 -5 -17 -10 -38 -11 -43 -1 -7 -5 -19 -7 -28 -1 -3 -2 -7 -2
-8 0 -2 -3 -14 -6 -25 -1 -4 -2 -8 -2 -9 0 -2 -1 -5 -2 -9 -1 -4 -3 -10 -4
-15 -1 -5 -3 -12 -4 -16 -1 -4 -2 -9 -3 -11 0 -2 -1 -5 -2 -8 -3 -9 1 -13 9
-6 2 2 6 4 7 5 2 1 7 4 11 6 5 3 11 7 13 8 2 2 5 4 7 4 1 1 5 4 10 7 5 3 10 6
11 7 2 1 6 3 9 5 4 2 7 5 9 5 1 1 4 3 7 5 3 2 7 4 10 6 2 1 7 4 10 5 2 2 6 4
8 5 3 2 5 3 12 8 3 2 7 4 8 5 1 0 3 2 4 2 11 7 16 10 16 10 1 0 4 2 9 5 4 3 9
6 10 7 3 1 12 7 20 12 2 1 5 3 7 4 2 0 6 3 9 4 2 2 10 7 16 11 6 3 14 8 18 11
3 2 8 5 10 6 4 2 11 6 24 14 17 10 19 12 24 14 2 1 4 2 5 3 1 1 5 3 9 5 4 2 9
6 11 7 2 2 7 4 11 7 19 10 20 11 22 18 0 4 1 8 2 10 1 3 5 18 6 24 0 2 1 4 1
6 1 1 2 4 2 7 1 3 2 6 2 8 1 1 2 5 2 8 1 4 1 7 2 8 1 1 2 5 2 8 3 13 5 20 7
26 1 4 3 11 4 16 1 5 3 12 3 15 3 8 6 22 7 28 0 2 1 6 2 7 0 1 1 5 1 7 1 2 2
7 3 10 1 3 2 7 2 8 0 1 1 4 2 7 1 2 3 9 4 15 1 5 3 13 4 17 1 3 2 9 3 13 0 8
2 9 11 10 4 1 9 2 10 3 1 0 4 1 8 1 3 1 7 2 9 2 1 1 5 2 8 2 3 1 8 2 11 3 10
4 12 4 17 5 3 1 7 2 9 3 2 0 6 2 9 2 9 3 19 6 29 10 5 1 13 4 18 6 13 3 23 7
30 10 2 1 5 2 5 2 1 0 3 1 5 1 3 2 9 4 16 6 2 1 5 2 8 3 2 1 5 3 8 4 2 1 6 3
8 4 3 1 6 2 7 2 1 0 3 1 5 2 1 1 3 2 4 2 1 0 3 1 6 2 2 1 4 2 5 2 1 0 3 1 5 2
10 5 12 6 14 6 1 0 2 1 4 1 1 1 3 2 4 2 1 1 4 2 7 3 2 1 6 3 9 4 6 2 8 3 23
10 4 2 11 5 13 6 2 1 6 3 8 4 2 1 4 2 5 2 1 0 5 2 10 4 5 2 11 5 13 6 2 1 7 4
10 5 3 2 16 8 30 15 13 7 24 13 25 13 1 1 4 2 8 4 3 1 16 7 29 14 12 6 24 11
25 11 1 1 6 4 12 7 5 3 13 7 18 9 5 3 14 7 20 11 6 3 13 6 14 7 2 1 23 11 31
15 3 2 9 6 14 8 23 15 29 18 37 23 5 3 11 7 13 9 3 1 8 5 13 7 11 7 68 45 88
59 3 3 9 7 14 10 14 11 17 13 23 18 3 2 7 6 10 8 8 6 32 26 34 28 0 0 3 3 7 5
3 3 8 8 12 11 3 3 12 11 20 18 15 13 65 63 81 80 20 23 24 27 32 37 16 20 19
24 26 34 4 6 9 13 11 16 2 3 6 8 8 11 2 3 4 7 5 8 1 2 2 3 2 4 0 0 2 3 4 6 6
9 36 69 36 72 0 0 1 3 3 6 3 7 4 10 7 19 2 4 4 9 4 11 1 1 2 4 2 6 1 2 2 5 3
6 0 1 2 5 2 8 2 5 3 11 8 26 1 3 3 9 3 11 1 2 2 7 3 11 4 12 5 18 6 23 0 3 1
8 2 11 1 3 2 7 2 9 0 1 1 6 2 11 1 4 2 9 2 12 0 2 1 7 2 10 1 3 2 9 2 12 0 3
1 9 1 14 1 4 2 17 3 28 1 11 1 21 2 21 2 3 -2 108 -4 112 -1 0 -1 6 -2 11 0 6
-2 13 -2 17 -1 3 -2 9 -3 13 0 3 -1 8 -2 11 -2 8 -4 18 -6 25 0 3 -2 11 -4 16
-1 4 -3 11 -3 14 -1 3 -2 6 -3 8 0 1 -1 3 -1 6 -1 2 -2 4 -2 5 0 0 -1 3 -2 6
-2 7 -6 17 -7 18 0 1 -1 3 -1 5 -1 2 -2 4 -2 5 -1 1 -6 13 -6 15 0 0 -1 3 -3
6 -1 2 -2 5 -2 6 0 0 -1 1 -1 2 -1 1 -2 2 -2 4 -1 2 -5 11 -7 15 0 1 -3 6 -6
12 -3 6 -7 14 -10 19 -2 4 -5 9 -6 11 0 1 -2 4 -3 6 -1 1 -3 4 -4 7 -6 11 -20
32 -38 58 -20 27 -52 65 -82 94 -9 9 -30 28 -38 34 -1 0 -4 3 -7 6 -6 5 -31
24 -36 27 -1 1 -5 4 -10 7 -13 9 -33 22 -38 25 -2 1 -5 3 -7 4 -11 7 -18 11
-25 14 -4 2 -8 5 -9 5 -1 1 -3 1 -4 2 -1 1 -3 1 -4 2 -1 0 -3 1 -4 2 -1 0 -3
1 -4 2 -1 1 -3 1 -4 2 -1 1 -3 1 -4 2 -3 2 -13 6 -14 6 -1 0 -2 0 -3 1 0 0 -4
2 -9 4 -5 2 -9 4 -10 5 -2 0 -3 1 -4 1 -1 0 -3 1 -5 2 -3 1 -6 2 -8 3 -2 1 -9
3 -16 6 -14 5 -23 7 -31 10 -15 3 -18 4 -22 5 -2 1 -6 2 -8 3 -3 0 -7 1 -9 2
-7 1 -18 4 -28 5 -4 1 -11 2 -15 3 -15 3 -28 5 -40 6 -6 1 -15 2 -18 2 -5 1
-56 1 -142 2 -233 0 -1317 1 -1319 0z"/>
</g>
</g>
<g id="t-shape" transform="translate(106.5000,157.5000) scale(0.250000)">
<g transform="translate(-4.054688,1595.000000) scale(1.000000,-1.000000)">
<path d="M204 1590 c-2 -3 -5 -7 -7 -9 -2 -3 -4 -6 -5 -7 -2 -2 -11 -14 -21
-27 -11 -13 -23 -28 -27 -33 -4 -6 -12 -16 -18 -22 -5 -7 -13 -17 -17 -21 -4
-5 -9 -13 -13 -17 -3 -4 -11 -14 -18 -23 -7 -8 -18 -22 -26 -32 -7 -9 -15 -19
-18 -23 -3 -4 -9 -11 -13 -16 -4 -5 -9 -12 -12 -15 -5 -5 -6 -7 -4 -8 0 -1 74
-1 164 -1 162 0 162 0 162 -4 -2 -6 -6 -26 -10 -43 -2 -10 -5 -21 -6 -24 0 -4
-2 -11 -3 -15 -1 -5 -2 -10 -2 -12 -1 -3 -2 -7 -3 -9 -1 -7 -8 -36 -11 -51 -6
-24 -6 -27 -8 -32 -1 -4 -2 -10 -3 -14 0 -4 -1 -7 -1 -8 -1 0 -3 -9 -5 -19 -2
-10 -5 -22 -6 -26 -1 -5 -3 -12 -3 -15 -2 -9 -5 -19 -6 -25 -1 -3 -2 -8 -3
-10 0 -3 -1 -6 -1 -7 -1 -1 -2 -5 -2 -9 -3 -13 -8 -35 -10 -44 -1 -3 -2 -8 -3
-10 0 -3 -1 -6 -1 -7 -1 -1 -2 -5 -3 -9 0 -4 -2 -10 -2 -13 -1 -3 -2 -7 -2 -8
0 -1 -1 -4 -1 -7 -2 -5 -5 -16 -6 -25 -2 -7 -4 -18 -6 -24 -1 -3 -2 -7 -2 -11
-2 -6 -4 -15 -7 -26 0 -3 -1 -8 -2 -10 0 -3 -1 -7 -2 -9 0 -1 -1 -5 -2 -8 0
-3 -1 -7 -2 -8 0 -1 -1 -5 -1 -9 -1 -3 -2 -7 -3 -9 0 -3 -1 -7 -2 -11 -1 -4
-2 -9 -2 -12 -1 -3 -2 -6 -2 -7 0 -1 -1 -5 -2 -8 -3 -9 -4 -15 -5 -22 -2 -7
-5 -19 -6 -24 -1 -3 -2 -7 -2 -10 -1 -4 -2 -9 -3 -12 -1 -4 -2 -7 -2 -8 0 -2
-1 -5 -2 -9 -1 -4 -3 -11 -4 -16 -1 -6 -3 -13 -4 -15 0 -3 -1 -8 -1 -10 -1 -2
-2 -7 -3 -10 -1 -3 -2 -7 -2 -9 0 -2 -1 -5 -2 -7 0 -2 -1 -6 -2 -9 0 -3 -1 -8
-2 -11 -1 -3 -2 -6 -2 -8 0 -1 -1 -6 -2 -9 -1 -4 -3 -12 -4 -17 -1 -6 -3 -13
-4 -16 -1 -3 -2 -9 -2 -13 -1 -4 -2 -10 -3 -14 -1 -4 -3 -10 -4 -13 -2 -9 -5
-22 -7 -28 0 -3 -2 -9 -3 -13 -2 -16 -10 -50 -13 -60 -1 -2 -2 -7 -3 -9 0 -3
-2 -11 -4 -17 -1 -7 -3 -15 -3 -18 -1 -4 -3 -11 -5 -16 -1 -6 -3 -13 -3 -16
-1 -3 -2 -9 -3 -14 -1 -5 -3 -11 -4 -14 0 -4 -2 -13 -4 -20 -2 -7 -3 -15 -4
-17 -1 -1 -2 -6 -3 -10 0 -4 -2 -11 -3 -15 -7 -32 -11 -50 -14 -60 -1 -6 -3
-14 -4 -16 0 -3 -2 -10 -3 -15 -1 -6 -3 -14 -5 -19 -1 -5 -3 -15 -5 -23 -3
-17 -5 -25 -11 -51 -4 -18 -4 -18 -3 -20 3 -1 289 -2 295 0 2 0 3 2 5 10 1 4
3 12 5 17 2 7 7 29 9 38 1 2 2 7 2 9 1 2 2 7 2 10 1 2 2 7 3 11 2 5 5 17 12
46 1 6 3 13 4 16 1 2 2 5 2 6 0 1 2 11 5 21 3 11 6 22 6 26 1 3 2 8 3 11 2 6
7 25 12 44 1 6 3 13 4 15 0 2 2 8 3 12 0 3 2 10 3 15 1 4 3 11 4 15 1 4 2 9 3
10 0 1 1 5 1 8 1 3 2 6 2 7 1 1 2 6 3 11 4 17 5 21 7 32 2 5 4 13 4 17 1 3 2
9 3 11 2 5 3 10 6 20 0 3 2 10 3 16 2 5 4 12 4 15 1 3 2 8 3 11 1 3 2 7 2 8 0
1 1 6 2 10 1 4 3 11 4 15 1 4 3 10 4 13 0 2 1 7 2 10 0 2 1 7 2 11 2 6 3 10 6
24 1 4 3 11 4 16 2 5 3 11 3 13 1 2 2 7 3 11 1 4 3 11 4 17 1 5 3 12 4 16 1 4
3 11 4 16 1 5 3 13 4 17 1 3 3 12 5 20 2 7 5 19 7 28 2 9 5 19 6 24 1 4 2 9 3
12 1 4 4 17 7 26 0 4 2 9 3 13 0 3 1 7 2 7 0 1 2 7 3 15 2 8 5 20 7 26 3 14 5
20 9 38 2 7 5 22 8 33 3 11 6 26 8 35 2 9 5 21 7 29 2 7 5 18 6 25 2 6 5 19 8
29 12 47 19 75 21 84 1 6 3 16 5 23 2 7 6 26 11 43 12 50 16 67 18 76 2 10 10
45 12 52 0 2 1 6 1 8 0 4 1 5 15 17 6 5 18 15 25 22 7 7 16 15 18 17 2 2 9 8
14 13 5 4 13 12 18 16 4 4 11 10 14 14 4 3 11 9 15 13 5 5 13 13 20 19 6 6 14
13 18 17 3 3 11 10 16 15 5 5 13 12 17 16 4 3 11 10 16 14 4 4 12 11 17 16 5
5 14 13 20 19 7 6 17 16 24 21 13 12 15 14 14 16 -1 2 -40 2 -362 2 -361 0
-361 0 -365 -5z"/>
</g>
</g>
<g id="candle-5" transform="translate(450.0000,159.5000) scale(0.250000)">
<g transform="translate(-4.000000,550.014316) scale(1.000000,-1.000000)">
<path d="M60 548 c-2 -1 -2 -5 -2 -29 0 -36 -1 -52 -3 -52 -1 0 -1 1 -1 5 0 5
-3 15 -5 16 0 0 -1 -3 -2 -7 -1 -12 -5 -18 -12 -21 -1 -1 -2 -2 -2 -2 0 0 -2
-1 -5 -1 -8 -1 -14 -3 -16 -5 -1 -1 -2 -2 -3 -2 -1 0 -5 -5 -5 -7 0 -1 1 -2 3
-2 2 0 2 0 1 -3 0 -1 0 -5 0 -7 0 -3 0 -71 0 -150 1 -134 1 -145 3 -146 1 -1
7 -1 25 -1 l23 1 -1 -64 c0 -42 0 -64 1 -65 1 -1 3 -2 9 -2 12 0 11 -6 11 64
0 33 0 61 0 62 -1 2 -1 3 0 4 1 0 12 0 25 0 22 0 24 1 26 2 1 2 1 25 1 131 0
71 1 130 1 131 4 10 6 -16 6 -72 0 -24 0 -42 1 -42 2 0 2 9 2 41 0 33 0 48 2
58 0 3 0 14 -1 27 0 13 -1 23 -1 24 0 0 -1 2 -2 3 -1 1 -2 4 -3 13 -1 6 -1 11
-2 11 -1 0 -2 2 -2 4 0 3 -1 4 -3 4 -2 0 -4 1 -5 2 -1 0 -2 1 -3 1 -1 0 -3 1
-4 2 -1 1 -4 2 -6 3 -2 0 -3 1 -3 2 0 1 -1 1 -3 1 -2 0 -5 1 -6 2 -1 1 -1 1
-2 0 -1 -4 -8 4 -8 10 0 2 0 3 -1 3 -1 0 -2 -3 -2 -13 -1 -11 -2 -15 -3 -15
-2 0 -3 14 -3 49 0 36 1 34 -11 34 -6 0 -8 0 -9 -2z m-43 -106 c0 -1 -1 -2 -2
-2 -1 0 -2 1 -2 2 0 0 1 1 2 1 1 0 2 -1 2 -1z m119 -10 c0 -2 0 -3 -1 -3 -1 0
-2 1 -2 3 0 2 1 3 2 3 1 0 1 -1 1 -3z"/>
</g>
</g>
<g id="candle-4" transform="translate(405.5000,208.7500) scale(0.250000)">
<g transform="translate(-4.687524,499.924003) scale(1.000000,-1.000000)">
<path d="M59 497 c-3 -4 -4 -7 -4 -8 1 0 4 0 9 -1 6 0 8 -1 8 -2 0 -1 -2 -1
-7 -1 -11 0 -11 1 -11 -27 0 -19 0 -23 -1 -23 -1 0 -2 3 -2 15 -2 27 -2 33 -4
33 -1 0 -2 -2 -3 -11 0 -11 -1 -12 -3 -12 -2 0 -8 -6 -11 -11 -1 -1 -2 -2 -3
-2 0 0 -2 -1 -2 -2 -1 -2 -2 -3 -2 -3 -1 0 -1 -1 -1 -1 0 -2 -3 -4 -6 -6 -1
-1 -3 -2 -5 -3 -1 -2 -2 -3 -3 -4 -4 -1 -2 -4 3 -4 4 0 5 0 5 -1 0 -2 -1 -2
-4 -2 -3 0 -5 -1 -6 -2 -2 -2 -1 -278 0 -280 2 -1 40 -2 44 0 5 1 5 2 5 -66 0
-75 -1 -69 10 -69 5 0 8 0 9 1 0 1 1 25 1 67 l1 66 24 0 c17 0 24 0 25 1 1 1
1 22 1 97 0 111 1 154 3 154 2 0 2 -6 3 -66 0 -34 1 -61 1 -61 1 0 2 26 2 66
0 36 1 57 4 58 1 0 1 2 1 4 0 2 0 4 1 5 3 2 2 30 -1 30 0 0 -2 3 -3 6 -2 3 -4
6 -4 6 -1 0 -8 4 -10 7 -2 1 -5 2 -7 2 -3 1 -6 2 -8 2 -1 1 -3 2 -4 2 0 0 -1
0 -1 1 0 1 -1 2 -2 4 -2 1 -3 2 -3 3 0 0 -1 2 -2 3 -1 1 -2 4 -3 6 0 1 -1 3
-1 3 -1 0 -1 1 -1 2 0 3 -5 13 -8 13 -1 1 -2 2 -2 3 0 1 0 2 -1 2 -1 0 -3 2
-5 4 -6 5 -12 7 -16 2z m20 -27 c0 -10 0 -12 -1 -12 -2 0 -2 2 -2 12 0 10 0
12 2 12 1 0 1 -2 1 -12z m0 -34 c1 -3 1 -6 1 -8 -1 -2 -1 -3 1 -4 1 0 1 -1 1
-2 -1 -3 -7 -2 -6 0 0 1 0 6 0 11 0 7 0 9 1 9 1 0 2 -2 2 -6z m-25 -14 c0 -1
-1 -2 -2 -2 -1 0 -2 1 -2 2 0 1 1 2 2 2 1 0 2 -1 2 -2z"/>
</g>
</g>
<g id="candle-3" transform="translate(360.7500,242.5000) scale(0.250000)">
<g transform="translate(-3.924214,493.129746) scale(1.000000,-1.000000)">
<path d="M56 492 c-1 -2 -2 -9 -2 -38 -1 -38 -1 -41 -4 -41 -1 0 -1 1 -3 24 0
7 -1 10 -2 11 0 0 -1 -1 -1 -2 0 -1 -1 -3 -1 -5 -1 -1 -2 -3 -2 -4 0 -2 -7 -7
-9 -7 -1 0 -4 -2 -6 -4 -2 -2 -4 -4 -5 -4 -1 0 -1 -1 -1 -1 0 -2 -3 -3 -7 -4
-2 -1 -7 -5 -7 -7 0 -1 11 -2 22 -2 7 0 9 0 9 -1 0 -2 -2 -2 -15 -2 -12 0 -15
0 -16 -2 -3 -2 -3 -271 0 -274 1 -1 3 -1 24 -1 l24 0 0 -61 c0 -41 0 -61 1
-62 2 -2 15 -1 17 1 2 1 3 11 3 80 l0 42 23 0 c29 0 26 -2 26 19 -2 33 1 252
2 256 2 4 1 9 0 12 -4 5 -16 6 -25 2 -3 -1 -7 -1 -12 -1 -7 -1 -10 -2 -10 -5
0 -2 1 -3 21 -3 16 0 20 0 20 -1 0 -2 -43 -4 -45 -2 -1 0 -1 14 -1 42 1 25 0
43 0 44 -1 3 -16 3 -18 1z m-3 -85 c0 -2 -1 -3 -4 -2 -2 0 -3 3 -1 3 3 1 5 1
5 -1z"/>
</g>
</g>
<g id="candle-2" transform="translate(315.7500,282.7500) scale(0.250000)">
<g transform="translate(-4.478132,446.054168) scale(1.000000,-1.000000)">
<path d="M55 445 c0 -1 0 -20 0 -43 l0 -42 -23 0 c-20 0 -24 0 -25 -1 -2 -2
-3 -3 -3 -120 0 -100 1 -118 2 -119 1 -1 5 -1 24 -1 l24 0 0 -56 c0 -65 -1
-59 10 -59 9 0 10 0 10 4 1 2 1 28 1 58 l1 54 22 0 c20 0 23 0 25 1 2 3 2 235
0 237 -1 2 -4 2 -24 2 l-23 0 -1 41 c0 29 0 43 -1 44 -2 1 -18 2 -19 0z"/>
</g>
</g>
<g id="candle-1" transform="translate(272.5000,324.0000) scale(0.250000)">
<g transform="translate(-4.000000,380.050830) scale(1.000000,-1.000000)">
<path d="M54 379 c-1 -1 -1 -12 -1 -44 l0 -43 -22 0 c-22 0 -22 0 -25 -2 -2
-3 -2 -3 -2 -71 0 -77 1 -115 2 -118 1 -1 6 -1 24 -1 12 0 22 -1 22 -1 1 0 1
-21 1 -46 0 -50 0 -47 7 -49 4 0 12 1 13 2 0 1 1 22 1 47 l1 46 21 1 c16 0 23
0 23 1 1 1 1 42 1 91 0 49 0 90 0 92 1 2 0 5 0 6 -2 2 -2 2 -24 2 -21 1 -21 1
-22 5 0 2 0 21 0 42 -1 28 -1 38 -2 40 -2 1 -16 2 -18 0z"/>
</g>
</g>
</g>
<g id="arrow" fill="url(#titanArrowGradient)" transform="translate(246,206) scale(0.250000)">
<g transform="translate(-12.500000,960.000000) scale(1.000000,-1.000000)">
<path d="M1356 958 c-1 -1 -2 -2 -4 -2 -2 0 -3 -1 -6 -4 -2 -3 -4 -4 -6 -4 -1
0 -4 -2 -8 -6 -4 -4 -7 -6 -8 -6 -2 0 -4 -1 -6 -4 -2 -3 -4 -4 -6 -4 -2 0 -4
-1 -6 -4 -2 -3 -4 -4 -6 -4 -2 0 -4 -1 -6 -4 -2 -3 -4 -4 -6 -4 -2 0 -4 -1 -6
-4 -2 -3 -4 -4 -6 -4 -2 0 -4 -1 -6 -4 -2 -3 -4 -4 -6 -4 -2 0 -4 -1 -6 -4 -2
-3 -4 -4 -6 -4 -2 0 -4 -1 -6 -4 -2 -3 -4 -4 -6 -4 -2 0 -4 -1 -6 -4 -2 -3 -4
-4 -6 -4 -2 0 -3 -1 -4 -2 -1 -1 -2 -2 -4 -2 -2 0 -4 -1 -6 -4 -2 -3 -4 -4 -6
-4 -2 0 -3 -1 -4 -2 -1 -1 -2 -2 -4 -2 -3 0 -8 -5 -8 -9 0 -2 1 -3 4 -3 2 0 3
-1 4 -2 1 -1 2 -2 4 -2 2 0 3 -1 4 -2 1 -1 2 -2 4 -2 2 0 3 -1 4 -2 1 -1 2 -2
4 -2 2 0 3 -1 4 -2 1 -1 2 -2 4 -2 2 0 3 -1 4 -2 1 -1 2 -2 4 -2 3 0 8 -5 8
-8 0 -2 -2 -4 -4 -6 -3 -2 -4 -4 -4 -6 0 -2 -1 -4 -4 -6 -3 -2 -4 -4 -4 -6 0
-2 -1 -4 -4 -6 -3 -2 -4 -4 -4 -6 0 -2 -1 -4 -4 -6 -3 -2 -4 -4 -4 -6 0 -2 -1
-4 -4 -6 -3 -2 -4 -4 -4 -6 0 -2 -1 -4 -4 -6 -3 -2 -4 -4 -4 -6 0 -1 -2 -4 -6
-8 -4 -4 -6 -7 -6 -8 0 -1 -2 -4 -6 -8 -4 -4 -6 -7 -6 -8 0 -1 -2 -4 -6 -8 -4
-4 -6 -7 -6 -8 0 -1 -3 -6 -10 -12 -6 -6 -10 -11 -10 -12 0 -1 -5 -7 -14 -16
-9 -9 -14 -15 -14 -16 0 -3 -81 -84 -84 -84 -1 0 -8 -6 -18 -16 -10 -11 -17
-16 -18 -16 -1 0 -6 -4 -14 -12 -8 -8 -13 -12 -14 -12 -1 0 -6 -4 -12 -10 -6
-7 -11 -10 -12 -10 -1 0 -5 -3 -10 -8 -5 -5 -9 -8 -10 -8 -2 0 -4 -2 -6 -4 -2
-2 -4 -4 -6 -4 -1 0 -5 -3 -10 -8 -5 -5 -9 -8 -10 -8 -1 0 -5 -3 -10 -8 -5 -5
-9 -8 -10 -8 -1 0 -4 -2 -8 -6 -4 -4 -7 -6 -8 -6 -2 0 -4 -1 -6 -4 -2 -3 -4
-4 -6 -4 -1 0 -4 -2 -8 -6 -4 -4 -7 -6 -8 -6 -2 0 -3 -1 -4 -2 -1 -1 -2 -2 -4
-2 -1 0 -4 -2 -8 -6 -4 -4 -7 -6 -8 -6 -2 0 -4 -1 -6 -4 -2 -3 -4 -4 -6 -4 -2
0 -4 -1 -6 -4 -2 -3 -4 -4 -6 -4 -2 0 -4 -1 -6 -4 -2 -3 -4 -4 -6 -4 -2 0 -4
-1 -6 -4 -2 -3 -4 -4 -6 -4 -2 0 -4 -1 -6 -4 -2 -3 -4 -4 -6 -4 -2 0 -3 -1 -4
-2 -1 -1 -2 -2 -4 -2 -2 0 -4 -1 -6 -4 -2 -3 -4 -4 -6 -4 -2 0 -4 -1 -6 -4 -2
-3 -4 -4 -6 -4 -2 0 -4 -1 -6 -4 -2 -3 -4 -4 -6 -4 -2 0 -4 -1 -6 -4 -2 -3 -4
-4 -6 -4 -2 0 -3 -1 -4 -2 -1 -1 -2 -2 -4 -2 -2 0 -4 -1 -6 -4 -2 -3 -4 -4 -6
-4 -2 0 -3 -1 -4 -2 -1 -1 -2 -2 -4 -2 -2 0 -4 -1 -6 -4 -2 -3 -4 -4 -6 -4 -2
0 -3 -1 -4 -2 -1 -1 -2 -2 -4 -2 -2 0 -4 -1 -6 -4 -2 -3 -4 -4 -6 -4 -2 0 -3
-1 -4 -2 -1 -1 -2 -2 -4 -2 -2 0 -3 -1 -4 -2 -1 -1 -2 -2 -4 -2 -2 0 -3 -1 -4
-2 -1 -1 -2 -2 -4 -2 -2 0 -4 -1 -6 -4 -2 -3 -4 -4 -6 -4 -2 0 -3 -1 -4 -2 -1
-1 -2 -2 -4 -2 -2 0 -3 -1 -4 -2 -1 -1 -2 -2 -4 -2 -2 0 -3 -1 -4 -2 -1 -1 -2
-2 -4 -2 -2 0 -3 -1 -4 -2 -1 -1 -2 -2 -4 -2 -2 0 -4 -1 -6 -4 -2 -3 -4 -4 -6
-4 -2 0 -3 -1 -4 -2 -1 -1 -2 -2 -4 -2 -2 0 -3 -1 -4 -2 -1 -1 -2 -2 -4 -2 -2
0 -3 -1 -4 -2 -1 -1 -2 -2 -4 -2 -2 0 -3 -1 -4 -2 -1 -1 -2 -2 -4 -2 -2 0 -3
-1 -4 -2 -1 -1 -2 -2 -4 -2 -2 0 -3 -1 -4 -2 -1 -1 -2 -2 -4 -2 -2 0 -3 -1 -4
-2 -1 -1 -2 -2 -4 -2 -2 0 -3 -1 -4 -2 -1 -1 -2 -2 -4 -2 -2 0 -3 -1 -4 -2 -1
-1 -2 -2 -4 -2 -1 0 -3 -1 -4 -2 -1 -1 -3 -2 -4 -2 -2 0 -3 -1 -4 -2 -1 -1 -3
-2 -4 -2 -2 0 -3 -1 -4 -2 -1 -1 -3 -2 -4 -2 -2 0 -3 -1 -4 -2 -1 -1 -3 -2 -4
-2 -2 0 -3 -1 -4 -2 -1 -1 -3 -2 -4 -2 -2 0 -3 -1 -4 -2 -2 -1 -3 -2 -6 -2 -4
0 -5 0 -6 -2 -1 -1 -2 -2 -4 -2 -1 0 -3 -1 -4 -2 -1 -1 -3 -2 -4 -2 -2 0 -3
-1 -4 -2 -1 -1 -2 -2 -4 -2 -2 0 -3 -1 -4 -2 -1 -2 -2 -2 -6 -2 -4 0 -5 0 -6
-2 -1 -1 -2 -2 -4 -2 -2 0 -3 -1 -4 -2 -1 -1 -2 -2 -4 -2 -2 0 -3 -1 -4 -2 -1
-2 -2 -2 -6 -2 -4 0 -5 0 -6 -2 -1 -1 -2 -2 -4 -2 -1 0 -3 -1 -4 -2 -1 -1 -3
-2 -4 -2 -2 0 -3 -1 -4 -2 -2 -1 -3 -2 -6 -2 -4 0 -5 0 -6 -2 -1 -2 -2 -2 -6
-2 -4 0 -5 0 -6 -2 -1 -1 -2 -2 -4 -2 -1 0 -3 -1 -4 -2 -2 -1 -3 -2 -6 -2 -4
0 -5 0 -6 -2 -1 -1 -2 -2 -4 -2 -1 0 -3 -1 -4 -2 -1 -1 -3 -2 -6 -2 -3 0 -5
-1 -6 -2 -1 -1 -3 -2 -4 -2 -2 0 -3 -1 -4 -2 -1 -1 -3 -2 -6 -2 -3 0 -5 -1 -6
-2 -1 -1 -3 -2 -6 -2 -3 0 -5 -1 -6 -2 -2 -1 -3 -2 -6 -2 -4 0 -5 0 -6 -2 -1
-2 -2 -2 -6 -2 -4 0 -5 0 -6 -2 -1 -1 -2 -2 -4 -2 -2 0 -3 -1 -4 -2 -1 -2 -2
-2 -6 -2 -4 0 -5 0 -6 -2 -1 -2 -2 -2 -6 -2 -4 0 -5 0 -6 -2 -1 -2 -2 -2 -6
-2 -4 0 -5 0 -6 -2 -1 -2 -2 -2 -6 -2 -4 0 -5 0 -6 -2 -1 -2 -2 -2 -6 -2 -4 0
-5 0 -6 -2 -1 -2 -2 -2 -6 -2 -4 0 -5 0 -6 -2 -1 -2 -2 -2 -8 -2 -6 0 -7 0 -8
-2 -1 -2 -2 -2 -6 -2 -4 0 -5 0 -6 -2 -1 -2 -2 -2 -6 -2 -4 0 -5 0 -6 -2 -1
-2 -2 -2 -6 -2 -4 0 -5 0 -6 -2 -1 -2 -2 -2 -8 -2 -6 0 -7 0 -8 -2 -1 -2 -2
-2 -6 -2 -4 0 -5 0 -6 -2 -1 -2 -2 -2 -8 -2 -5 0 -7 0 -8 -2 -2 -2 -3 -2 -8
-2 -6 0 -7 0 -8 -2 -1 -1 -3 -2 -6 -2 -4 0 -5 -1 -5 -2 0 -1 2 -2 10 -2 10 0
11 0 13 2 2 2 3 2 29 2 25 0 26 0 27 2 1 2 2 2 20 2 18 0 19 0 20 2 1 2 2 2
16 2 13 0 15 0 16 2 2 2 3 2 14 2 11 0 13 0 14 2 2 2 3 2 10 2 7 0 9 0 10 2 2
2 3 2 12 2 9 0 11 0 12 2 2 2 3 2 10 2 7 0 9 0 10 2 2 2 3 2 12 2 10 0 11 0
12 2 1 2 2 2 10 2 8 0 9 0 10 2 1 2 2 2 8 2 6 0 7 0 8 2 1 2 2 2 10 2 8 0 9 0
10 2 1 2 2 2 8 2 6 0 7 0 8 2 1 2 2 2 10 2 8 0 9 0 10 2 1 2 2 2 6 2 4 0 5 0
6 2 1 2 2 2 6 2 4 0 5 0 6 2 1 2 2 2 8 2 6 0 7 0 8 2 1 2 2 2 6 2 4 0 5 0 6 2
1 2 2 2 6 2 4 0 5 0 6 2 1 2 2 2 6 2 4 0 5 0 6 2 1 2 2 2 6 2 4 0 5 0 6 2 1 2
2 2 6 2 4 0 5 0 6 2 1 2 2 2 6 2 4 0 5 0 6 2 1 2 2 2 6 2 4 0 5 0 6 2 1 1 2 2
4 2 2 0 3 1 4 2 1 2 2 2 6 2 4 0 5 0 6 2 1 2 2 2 6 2 4 0 5 0 6 2 1 1 2 2 4 2
2 0 3 1 4 2 1 2 2 2 6 2 4 0 5 0 6 2 1 1 2 2 4 2 2 0 3 1 4 2 1 2 2 2 6 2 4 0
5 0 6 2 1 1 2 2 4 2 2 0 3 1 4 2 1 1 2 2 4 2 2 0 3 1 4 2 1 2 2 2 6 2 4 0 5 0
6 2 1 1 2 2 4 2 2 0 3 1 4 2 1 2 2 2 6 2 4 0 5 0 6 2 1 1 2 2 4 2 2 0 3 1 4 2
1 1 2 2 4 2 2 0 3 1 4 2 1 1 2 2 4 2 2 0 3 1 4 2 1 2 2 2 6 2 4 0 5 0 6 2 1 1
2 2 4 2 2 0 3 1 4 2 1 1 2 2 4 2 2 0 3 1 4 2 1 1 2 2 4 2 2 0 3 1 4 2 1 1 2 2
4 2 2 0 3 1 4 2 1 1 2 2 4 2 2 0 3 1 4 2 1 1 2 2 4 2 2 0 3 1 4 2 1 1 2 2 4 2
2 0 3 1 4 2 1 1 2 2 4 2 2 0 3 1 4 2 1 1 2 2 4 2 2 0 3 1 4 2 1 1 2 2 4 2 2 0
3 1 4 2 1 1 2 2 4 2 2 0 3 1 4 2 1 1 2 2 4 2 2 0 3 1 4 2 1 1 2 2 4 2 2 0 4 1
6 4 2 3 4 4 6 4 2 0 4 1 6 4 2 3 4 4 6 4 2 0 3 1 4 2 1 1 2 2 4 2 2 0 4 1 6 4
2 3 4 4 6 4 2 0 3 1 4 2 1 1 2 2 4 2 2 0 4 1 6 4 2 3 4 4 6 4 2 0 3 1 4 2 1 1
2 2 4 2 2 0 4 1 6 4 2 3 4 4 6 4 2 0 4 1 6 4 2 3 4 4 6 4 2 0 4 1 6 4 2 3 4 4
6 4 2 0 4 1 6 4 2 3 4 4 6 4 1 0 4 2 8 6 4 4 7 6 8 6 2 0 4 1 6 4 2 3 4 4 6 4
1 0 4 2 8 6 4 4 7 6 8 6 1 0 4 2 8 6 4 4 7 6 8 6 2 0 4 1 6 4 2 3 4 4 6 4 1 0
4 2 8 6 4 4 7 6 8 6 1 0 6 4 14 12 8 8 13 12 14 12 1 0 8 6 20 18 12 12 19 18
20 18 3 0 64 61 64 64 0 1 6 8 16 18 11 11 16 17 16 18 0 1 3 5 8 10 5 5 8 9
8 10 0 1 3 5 8 10 5 5 8 9 8 10 0 1 2 4 6 8 4 4 6 7 6 8 0 1 2 4 6 8 4 4 6 7
6 8 0 2 1 4 4 6 3 2 4 4 4 6 0 2 1 4 4 6 3 2 4 4 4 6 0 2 1 4 4 6 3 2 4 4 4 6
0 2 1 4 4 6 3 2 4 4 4 6 0 2 1 3 2 4 1 1 2 2 2 4 0 2 1 4 4 6 3 2 4 4 4 6 0 2
1 3 2 4 1 1 2 2 2 4 0 2 1 3 2 4 1 1 2 2 2 4 0 2 1 3 2 4 1 1 2 2 2 4 0 2 1 3
2 4 1 1 2 2 2 4 0 2 1 4 4 6 4 3 4 4 4 8 0 4 0 5 2 6 1 1 2 2 2 4 0 2 1 3 2 4
1 1 2 2 2 4 0 2 1 3 2 4 1 1 2 2 2 4 0 2 1 3 2 4 1 1 2 2 2 4 0 2 1 3 2 4 1 1
2 2 2 4 0 2 1 3 2 4 1 1 2 2 2 4 0 2 1 3 2 4 1 1 2 2 2 4 0 2 1 3 2 4 1 1 2 2
2 4 0 2 1 3 2 4 1 1 2 2 2 6 0 5 1 6 3 6 2 0 4 -1 12 -9 5 -5 9 -10 9 -11 0
-1 4 -6 11 -13 9 -9 12 -11 14 -11 l3 1 0 15 c0 14 0 15 2 16 2 1 2 2 2 14 0
12 0 13 2 14 2 1 2 2 2 16 0 14 0 15 2 16 2 1 2 2 2 16 0 14 0 15 2 16 2 1 2
2 2 16 0 14 0 15 2 16 2 1 2 2 2 16 0 14 0 15 2 16 2 1 2 2 2 10 0 8 0 9 -2
10 -1 0 -2 1 -2 2 0 1 1 2 2 2 1 0 2 1 2 2 0 1 -1 2 -2 2 -1 0 -2 -1 -2 -2z
m-692 -764 c0 -1 -1 -2 -2 -2 -1 0 -2 1 -2 2 0 1 1 2 2 2 1 0 2 -1 2 -2z
m-148 -6 c0 -3 -1 -4 -3 -4 -5 0 -6 2 -2 5 3 4 5 3 5 -1z m132 -2 c0 -1 -1 -2
-2 -2 -1 0 -2 1 -2 2 0 1 1 2 2 2 1 0 2 -1 2 -2z m-20 -8 c0 -1 -1 -2 -2 -2
-1 0 -2 1 -2 2 0 1 1 2 2 2 1 0 2 -1 2 -2z m-155 -5 c2 -2 3 -4 3 -5 0 -2 1
-3 2 -4 1 -1 2 -2 2 -4 0 -1 3 -5 12 -14 9 -9 12 -12 12 -15 1 -3 3 -4 4 -1 1
2 2 2 6 2 5 0 6 0 6 2 0 1 -2 2 -4 2 -6 1 -11 9 -6 12 1 1 2 2 2 4 0 3 1 4 4
4 3 0 4 1 4 4 0 2 1 4 1 4 1 0 3 -2 5 -4 3 -3 4 -4 10 -4 l8 0 0 -6 c1 -6 3
-8 4 -4 1 2 2 2 6 2 4 0 5 0 6 2 1 1 2 2 4 2 2 0 3 1 4 2 1 1 2 2 4 2 1 0 3 1
4 2 1 1 3 2 6 2 4 0 5 0 6 2 1 1 2 2 4 2 2 0 3 1 4 2 1 2 2 2 4 2 5 -1 5 -3 0
-4 -2 0 -3 -1 -4 -2 -1 -1 -2 -2 -4 -2 -2 0 -3 -1 -4 -2 -1 -1 -2 -2 -4 -2 -1
0 -3 -1 -4 -2 -1 -1 -3 -2 -6 -2 -4 0 -5 0 -6 -2 -1 -1 -2 -2 -4 -2 -2 0 -3
-1 -4 -2 -1 -2 -2 -2 -6 -2 -4 0 -5 0 -6 -2 -1 -1 -2 -2 -4 -2 -2 0 -3 -1 -4
-2 -1 -1 -2 -2 -4 -2 -2 0 -3 -1 -4 -2 -1 -2 -2 -2 -6 -2 -5 0 -6 0 -6 -2 -1
-2 -2 -2 -6 -2 -4 0 -5 0 -6 -2 -1 -1 -2 -2 -4 -2 -2 0 -3 -1 -4 -2 -1 -1 -2
-2 -4 -2 -2 0 -3 -1 -4 -2 -1 -2 -2 -2 -6 -2 -4 0 -5 0 -6 -2 -1 -2 -2 -2 -6
-2 -4 0 -5 0 -6 -2 -1 -2 -2 -2 -6 -2 -4 0 -5 0 -6 -2 -1 -1 -2 -2 -4 -2 -2 0
-3 -1 -4 -2 -1 -2 -2 -2 -6 -2 -4 0 -5 0 -6 -2 -1 -2 -2 -2 -6 -2 -4 0 -5 0
-6 -2 -1 -2 -2 -2 -6 -2 -4 0 -5 0 -6 -2 -1 -2 -2 -2 -8 -2 -6 0 -7 0 -8 -2
-1 -2 -2 -2 -6 -2 -4 0 -5 0 -6 -2 -1 -2 -2 -2 -6 -2 -4 0 -5 0 -6 -2 -1 -2
-2 -2 -8 -2 -6 0 -7 0 -8 -2 -1 -2 -2 -2 -8 -2 -6 0 -7 0 -8 -2 -1 -2 -2 -2
-6 -2 -4 0 -5 0 -6 -2 -1 -2 -2 -2 -8 -2 -6 0 -7 0 -8 -2 -1 -2 -2 -2 -10 -2
-8 0 -9 0 -10 -2 -1 -2 -2 -2 -6 -2 -4 0 -5 0 -6 -2 -1 -2 -2 -2 -8 -2 -5 0
-7 0 -8 -2 -2 -2 -3 -2 -10 -2 -7 0 -9 0 -10 -2 -2 -2 -3 -2 -12 -2 -9 0 -11
0 -12 -2 -2 -2 -3 -2 -9 -2 -6 0 -7 0 -7 2 0 2 1 2 3 2 5 0 6 2 3 4 -3 2 -3 4
0 5 1 0 2 1 2 3 0 1 1 4 4 6 2 2 4 5 4 7 0 2 1 3 4 3 2 0 3 1 4 2 1 1 2 2 4 2
1 0 3 1 4 2 1 1 3 2 6 2 3 0 5 1 6 2 2 1 3 2 6 2 4 0 5 0 6 2 1 1 2 2 4 2 1 0
3 1 4 2 1 1 3 2 4 2 2 0 3 1 4 2 1 1 3 2 6 2 3 0 5 1 6 2 1 1 3 2 6 2 3 0 5 1
6 2 2 2 3 2 8 2 6 0 7 0 8 2 1 1 2 2 6 2 5 0 6 1 6 4 0 3 1 4 5 4 4 0 6 1 7 2
1 1 3 2 4 2 1 0 3 1 4 2 l2 3 2 -3 2 -2 2 2 c2 2 3 2 8 2 6 0 7 0 8 2 1 1 2 2
4 2 1 0 4 2 10 8 6 6 9 8 10 8 2 0 3 1 4 2 1 2 2 2 6 2 3 0 5 1 6 2 2 1 3 2 6
2 4 0 5 0 6 2 1 1 2 2 4 2 1 0 3 1 4 2 1 1 3 2 4 2 2 0 3 1 4 2 1 1 3 2 4 2 2
0 3 1 4 2 1 1 3 2 4 2 2 0 3 1 4 2 1 1 3 2 4 2 2 0 3 1 4 2 3 3 6 2 9 -1z
m147 1 c0 -1 -1 -2 -2 -2 -1 0 -2 1 -2 2 0 1 1 2 2 2 1 0 2 -1 2 -2z m-8 -4
c0 -1 -1 -2 -2 -2 -1 0 -2 1 -2 2 0 1 1 2 2 2 1 0 2 -1 2 -2z m-444 -120 c0
-1 -1 -2 -2 -2 -1 0 -2 1 -2 2 0 1 1 2 2 2 1 0 2 -1 2 -2z m28 -12 c-1 -2 -4
-3 -4 0 0 1 1 2 2 2 2 0 2 -1 2 -2z m-28 -4 c0 -1 -2 -2 -6 -2 -5 0 -6 0 -6 2
0 2 1 2 6 2 5 0 6 0 6 -2z"/>
</g>
</g>
</svg>
